<svg xmlns="http://www.w3.org/2000/svg" xmlns:xlink="http://www.w3.org/1999/xlink" width="500" zoomAndPan="magnify" viewBox="0 0 375 374.999991" height="500" preserveAspectRatio="xMidYMid meet" version="1.0"><defs><g/><clipPath id="4c0f746a69"><path d="M 5 101.589844 L 139 101.589844 L 139 233.589844 L 5 233.589844 Z M 5 101.589844 " clip-rule="nonzero"/></clipPath></defs><g clip-path="url(#4c0f746a69)"><path fill="#e4c590" d="M 72.363281 101.589844 C 88.773438 120.339844 85.367188 136.625 81.527344 155.085938 C 79.863281 163.15625 78.085938 171.664062 77.90625 180.890625 C 77.726562 191.605469 79.789062 194.609375 82.109375 197.902344 C 83.628906 200.074219 85.222656 202.355469 86.453125 206.699219 C 87.140625 209.085938 87.359375 212.089844 86.851562 216.289062 L 86.816406 216.398438 C 86.308594 220.488281 85.042969 225.699219 82.761719 232.648438 C 82.578125 233.191406 82.070312 233.554688 81.492188 233.554688 L 63.164062 233.554688 C 62.621094 233.554688 62.078125 233.191406 61.898438 232.648438 C 59.617188 225.738281 58.386719 220.488281 57.84375 216.398438 L 57.804688 216.289062 C 57.261719 212.089844 57.515625 209.085938 58.203125 206.699219 C 59.433594 202.355469 61.027344 200.074219 62.550781 197.902344 C 64.832031 194.609375 66.933594 191.605469 66.75 180.890625 C 66.605469 171.664062 64.832031 163.15625 63.128906 155.085938 C 59.289062 136.625 55.886719 120.304688 72.292969 101.589844 Z M 72.363281 211.441406 C 73.34375 211.441406 74.140625 212.234375 74.140625 213.214844 L 74.140625 229.972656 C 74.140625 230.515625 74.574219 230.984375 75.152344 230.984375 L 75.589844 230.984375 C 76.132812 230.984375 76.566406 230.585938 76.601562 230.042969 L 77.652344 213.683594 C 77.726562 212.707031 78.558594 211.984375 79.535156 212.054688 C 80.515625 212.128906 81.238281 212.960938 81.203125 213.9375 L 80.078125 231.019531 L 80.621094 231.019531 C 82.652344 224.6875 83.773438 219.910156 84.246094 216.179688 L 84.246094 216.074219 C 84.714844 212.273438 84.535156 209.59375 83.953125 207.496094 C 82.867188 203.621094 81.382812 201.488281 80.007812 199.496094 C 77.472656 195.839844 75.152344 192.511719 75.335938 180.929688 C 75.480469 171.410156 77.289062 162.796875 78.992188 154.613281 C 82.507812 137.710938 85.65625 122.65625 72.402344 105.824219 C 59.183594 122.691406 62.296875 137.710938 65.808594 154.613281 C 67.511719 162.796875 69.324219 171.410156 69.46875 180.929688 C 69.648438 192.511719 67.367188 195.839844 64.796875 199.496094 C 63.417969 201.488281 61.933594 203.621094 60.847656 207.496094 C 60.269531 209.558594 60.050781 212.234375 60.558594 216.074219 L 60.558594 216.179688 C 61.027344 219.910156 62.152344 224.6875 64.179688 231.019531 L 64.722656 231.019531 L 63.601562 213.9375 C 63.527344 212.960938 64.289062 212.128906 65.265625 212.054688 C 66.246094 211.984375 67.078125 212.742188 67.148438 213.683594 L 68.199219 230.042969 C 68.238281 230.585938 68.671875 230.984375 69.214844 230.984375 L 69.648438 230.984375 C 70.191406 230.984375 70.664062 230.550781 70.664062 229.972656 L 70.664062 213.214844 C 70.664062 212.234375 71.460938 211.441406 72.4375 211.441406 Z M 59.652344 194.863281 C 59.582031 194.863281 40.023438 192.074219 29.085938 204.960938 L 27.492188 206.84375 L 29.917969 207.132812 C 31.292969 207.3125 31.835938 207.386719 32.417969 207.457031 C 39.515625 208.363281 45.203125 209.125 51.722656 204.707031 C 53.496094 203.511719 55.378906 202.03125 56.972656 200.652344 C 58.53125 199.316406 59.832031 197.976562 60.558594 196.925781 L 61.789062 195.152344 L 59.617188 194.863281 Z M 32.816406 204.851562 C 40.566406 197.503906 51.757812 197.070312 56.753906 197.289062 C 56.320312 197.722656 55.8125 198.191406 55.269531 198.664062 C 53.75 200.003906 51.9375 201.378906 50.273438 202.535156 C 44.621094 206.371094 39.335938 205.683594 32.851562 204.851562 Z M 61.644531 190.953125 C 61.535156 190.84375 27.128906 157.367188 7.355469 162.070312 L 5.867188 162.433594 L 6.414062 163.84375 C 12.027344 178.140625 23.976562 185.488281 35.351562 189.253906 C 46.613281 192.980469 57.335938 193.199219 60.667969 193.269531 L 64 193.34375 L 61.609375 191.027344 Z M 9.492188 164.351562 C 24.957031 162.433594 49.367188 183.28125 57.226562 190.449219 C 52.445312 190.195312 44.441406 189.433594 36.183594 186.683594 C 25.824219 183.246094 14.996094 176.730469 9.492188 164.351562 Z M 65.339844 186.792969 C 65.339844 186.648438 62.660156 137.460938 32.34375 124.140625 L 30.96875 123.523438 L 30.535156 124.972656 C 29.011719 130.039062 28.214844 137.167969 32.34375 147.414062 C 36.402344 157.472656 45.273438 170.578125 63.09375 187.804688 L 65.519531 190.15625 Z M 32.671875 127.214844 C 55.597656 138.542969 61.175781 172.386719 62.40625 183.425781 C 46.613281 167.71875 38.574219 155.699219 34.84375 146.433594 C 31.367188 137.894531 31.621094 131.742188 32.707031 127.214844 Z M 85.042969 194.898438 C 85.113281 194.898438 104.671875 192.113281 115.609375 204.996094 L 117.203125 206.878906 L 114.738281 207.167969 C 113.363281 207.351562 112.820312 207.421875 112.242188 207.496094 C 105.140625 208.398438 99.457031 209.160156 92.9375 204.742188 C 91.164062 203.550781 89.277344 202.066406 87.683594 200.691406 C 86.128906 199.351562 84.824219 198.011719 84.101562 196.960938 L 82.867188 195.1875 Z M 111.878906 204.890625 C 104.128906 197.542969 92.9375 197.105469 87.9375 197.324219 C 88.375 197.757812 88.878906 198.230469 89.425781 198.699219 C 90.945312 200.039062 92.757812 201.414062 94.421875 202.574219 C 100.070312 206.410156 105.359375 205.722656 111.84375 204.890625 Z M 83.050781 190.988281 C 83.15625 190.882812 117.566406 157.402344 137.339844 162.105469 L 138.824219 162.46875 L 138.28125 163.878906 C 132.667969 178.175781 120.714844 185.523438 109.34375 189.289062 C 98.078125 193.015625 87.359375 193.234375 84.027344 193.304688 L 80.695312 193.378906 L 83.085938 191.0625 Z M 135.203125 164.386719 C 119.738281 162.46875 95.328125 183.316406 87.46875 190.484375 C 92.25 190.230469 100.253906 189.46875 108.511719 186.71875 C 118.867188 183.28125 129.699219 176.765625 135.203125 164.386719 Z M 79.355469 186.828125 C 79.355469 186.683594 82.035156 137.496094 112.351562 124.175781 L 113.726562 123.558594 L 114.160156 125.007812 C 115.683594 130.074219 116.480469 137.207031 112.351562 147.449219 C 108.292969 157.511719 99.421875 170.613281 81.601562 187.839844 L 79.175781 190.195312 Z M 112.023438 127.253906 C 89.097656 138.582031 83.519531 172.421875 82.289062 183.460938 C 98.078125 167.753906 106.121094 155.738281 109.851562 146.472656 C 113.328125 137.929688 113.074219 131.777344 111.988281 127.253906 Z M 112.023438 127.253906 " fill-opacity="1" fill-rule="nonzero"/></g><g fill="#ffffff" fill-opacity="1"><g transform="translate(149.919092, 184.219925)"><g><path d="M 3.066406 0 L 31.023438 0 L 31.441406 -6.792969 L 30.78125 -6.914062 C 28.675781 -2.40625 26.03125 -0.960938 20.261719 -0.960938 L 13.105469 -0.960938 C 11.363281 -0.960938 10.402344 -1.925781 10.402344 -3.667969 L 10.402344 -34.449219 C 10.402344 -39.378906 10.941406 -40.761719 12.804688 -41.300781 L 12.804688 -42.085938 L 3.066406 -42.085938 L 3.066406 -41.300781 C 4.871094 -40.761719 5.472656 -39.378906 5.472656 -34.449219 L 5.472656 -7.636719 C 5.472656 -2.707031 4.871094 -1.324219 3.066406 -0.78125 Z M 3.066406 0 "/></g></g></g><g fill="#ffffff" fill-opacity="1"><g transform="translate(185.989705, 184.219925)"><g><path d="M 13.105469 0.601562 C 17.613281 0.601562 21.761719 -2.285156 24.828125 -5.472656 L 24.828125 -2.40625 C 24.828125 -0.660156 25.492188 0 26.8125 0 L 31.921875 0 L 31.921875 -0.78125 C 30.058594 -1.324219 29.519531 -2.707031 29.519531 -7.636719 L 29.519531 -30.121094 L 28.976562 -30.539062 L 22.425781 -27.65625 L 22.425781 -26.992188 C 24.046875 -26.273438 24.828125 -25.671875 24.828125 -21.460938 L 24.828125 -6.613281 C 22.125 -3.726562 18.878906 -1.503906 15.332031 -1.503906 C 10.519531 -1.503906 8.597656 -4.570312 8.597656 -11.421875 L 8.597656 -30.121094 L 8.054688 -30.539062 L 1.503906 -27.65625 L 1.503906 -26.992188 C 3.125 -26.273438 3.90625 -25.671875 3.90625 -21.460938 L 3.90625 -10.339844 C 3.90625 -3.425781 6.792969 0.601562 13.105469 0.601562 Z M 13.105469 0.601562 "/></g></g></g><g fill="#ffffff" fill-opacity="1"><g transform="translate(223.443016, 184.219925)"><g><path d="M 18.757812 0 L 28.015625 0 L 28.015625 -0.78125 C 26.453125 -1.324219 24.949219 -2.285156 22.246094 -6.371094 L 15.511719 -16.652344 L 20.5 -23.808594 C 23.328125 -27.835938 24.890625 -28.738281 26.511719 -29.277344 L 26.511719 -30.058594 L 18.816406 -30.058594 L 18.816406 -29.277344 C 22.726562 -28.738281 22.304688 -27.835938 19.480469 -23.808594 L 14.96875 -17.433594 L 10.882812 -23.6875 C 8.175781 -27.777344 7.214844 -28.738281 9.078125 -29.277344 L 9.078125 -30.058594 L -0.242188 -30.058594 L -0.242188 -29.277344 C 1.324219 -28.738281 2.824219 -27.777344 5.53125 -23.6875 L 11.664062 -14.429688 L 5.589844 -6.132812 C 2.707031 -2.222656 1.082031 -1.324219 -0.542969 -0.78125 L -0.542969 0 L 7.214844 0 L 7.214844 -0.78125 C 3.304688 -1.324219 3.789062 -2.222656 6.671875 -6.132812 L 12.144531 -13.648438 L 16.953125 -6.371094 C 19.660156 -2.285156 20.621094 -1.324219 18.757812 -0.78125 Z M 18.757812 0 "/></g></g></g><g fill="#ffffff" fill-opacity="1"><g transform="translate(254.764361, 184.219925)"><g><path d="M 16.414062 0.601562 C 22.84375 0.601562 27.535156 -3.667969 30.601562 -7.875 L 30.058594 -8.417969 C 27.292969 -5.289062 23.988281 -3.1875 19.359375 -3.1875 C 11.542969 -3.1875 6.433594 -8.835938 6.433594 -17.074219 C 6.433594 -18.035156 6.492188 -18.9375 6.613281 -19.839844 L 30.121094 -19.839844 C 29.941406 -25.550781 25.550781 -30.480469 17.976562 -30.480469 C 9.558594 -30.480469 2.164062 -23.929688 2.164062 -14.128906 C 2.164062 -4.207031 9.800781 0.601562 16.414062 0.601562 Z M 6.792969 -20.621094 C 7.753906 -25.671875 10.882812 -29.457031 15.992188 -29.398438 C 21.460938 -29.398438 24.710938 -24.648438 25.308594 -20.621094 Z M 6.792969 -20.621094 "/></g></g></g><g fill="#e4c590" fill-opacity="1"><g transform="translate(150.074629, 233.280467)"><g><path d="M 3.066406 0 L 15.332031 0 C 29.941406 0 34.988281 -7.09375 34.871094 -13.828125 C 34.808594 -19.71875 30.480469 -24.589844 20.679688 -25.070312 C 27.535156 -26.332031 30.179688 -30.058594 30.179688 -34.148438 C 30.179688 -39.019531 26.394531 -42.085938 17.132812 -42.085938 L 3.066406 -42.085938 L 3.066406 -41.300781 C 4.871094 -40.761719 5.472656 -39.378906 5.472656 -34.449219 L 5.472656 -7.636719 C 5.472656 -2.707031 4.871094 -1.324219 3.066406 -0.78125 Z M 10.402344 -6.132812 L 10.402344 -24.289062 L 16.53125 -24.289062 C 25.550781 -24.289062 29.398438 -19.238281 29.398438 -12.324219 C 29.398438 -5.652344 25.671875 -0.902344 15.871094 -0.902344 L 13.527344 -0.902344 C 10.941406 -0.902344 10.402344 -1.804688 10.402344 -6.132812 Z M 10.402344 -25.191406 L 10.402344 -41.183594 L 14.96875 -41.183594 C 21.164062 -41.183594 24.710938 -38.054688 24.710938 -33.066406 C 24.710938 -28.675781 21.945312 -25.191406 15.992188 -25.191406 Z M 10.402344 -25.191406 "/></g></g></g><g fill="#e4c590" fill-opacity="1"><g transform="translate(190.293337, 233.280467)"><g><path d="M 1.925781 0 L 11.421875 0 L 11.421875 -0.78125 C 9.621094 -1.324219 9.019531 -2.707031 9.019531 -7.636719 L 9.019531 -30.121094 L 8.535156 -30.539062 L 1.925781 -27.65625 L 1.925781 -26.992188 C 3.605469 -26.273438 4.328125 -25.671875 4.328125 -21.460938 L 4.328125 -7.636719 C 4.328125 -2.707031 3.789062 -1.324219 1.925781 -0.78125 Z M 3.007812 -37.515625 C 3.007812 -35.710938 4.449219 -34.207031 6.3125 -34.207031 C 8.175781 -34.207031 9.621094 -35.710938 9.621094 -37.515625 C 9.621094 -39.4375 8.238281 -40.882812 6.3125 -40.882812 C 4.449219 -40.882812 3.007812 -39.4375 3.007812 -37.515625 Z M 3.007812 -37.515625 "/></g></g></g><g fill="#e4c590" fill-opacity="1"><g transform="translate(207.246665, 233.280467)"><g><path d="M 13.585938 0.542969 C 20.800781 0.480469 24.589844 -3.789062 24.589844 -8.835938 C 24.589844 -14.851562 19.058594 -16.230469 14.488281 -17.734375 C 9.738281 -19.296875 5.890625 -20.863281 5.890625 -24.648438 C 5.890625 -27.714844 8.535156 -29.699219 12.625 -29.699219 C 16.894531 -29.699219 20.742188 -26.933594 22.664062 -22.605469 L 23.265625 -22.726562 L 23.027344 -28.859375 C 21.164062 -29.640625 17.613281 -30.480469 13.707031 -30.480469 C 6.734375 -30.480469 2.765625 -26.8125 2.765625 -22.0625 C 2.765625 -16.59375 6.855469 -15.03125 12.566406 -13.226562 C 17.195312 -11.722656 21.402344 -10.339844 21.402344 -6.011719 C 21.402344 -2.644531 18.636719 -0.421875 14.910156 -0.421875 C 9.4375 -0.480469 5.171875 -3.90625 2.644531 -9.621094 L 2.105469 -9.5 L 2.644531 -2.222656 C 4.628906 -0.902344 8.777344 0.542969 13.585938 0.542969 Z M 13.585938 0.542969 "/></g></g></g><g fill="#e4c590" fill-opacity="1"><g transform="translate(237.425792, 233.280467)"><g><path d="M 11.363281 0.601562 C 14.910156 0.601562 17.976562 -1.984375 20.5625 -4.929688 L 20.019531 -5.472656 C 18.035156 -3.125 15.933594 -2.34375 14.25 -2.34375 C 11.664062 -2.34375 9.980469 -3.90625 9.980469 -7.996094 L 9.980469 -29.21875 L 18.816406 -29.21875 L 19.117188 -30.058594 L 9.980469 -30.058594 L 9.980469 -37.453125 L 9.136719 -37.453125 L 1.441406 -30.058594 L 1.441406 -29.21875 L 5.289062 -29.21875 L 5.289062 -7.996094 C 5.289062 -1.742188 7.574219 0.601562 11.363281 0.601562 Z M 11.363281 0.601562 "/></g></g></g><g fill="#e4c590" fill-opacity="1"><g transform="translate(261.533073, 233.280467)"><g><path d="M 1.925781 0 L 11.421875 0 L 11.421875 -0.78125 C 9.558594 -1.324219 9.019531 -2.707031 9.019531 -7.636719 L 9.019531 -19.597656 L 9.078125 -19.597656 C 9.257812 -22.484375 11.421875 -25.851562 13.167969 -27.113281 C 16.714844 -26.09375 19.058594 -25.429688 20.679688 -25.429688 C 22.84375 -25.429688 24.167969 -27.535156 24.167969 -28.859375 C 24.167969 -29.878906 22.664062 -30.480469 20.261719 -30.480469 C 17.375 -30.480469 15.269531 -29.699219 13.40625 -28.316406 C 11.601562 -26.992188 9.980469 -24.949219 9.019531 -22.605469 L 9.019531 -30.121094 L 8.476562 -30.539062 L 1.925781 -27.65625 L 1.925781 -26.992188 C 3.546875 -26.273438 4.328125 -25.671875 4.328125 -21.460938 L 4.328125 -7.636719 C 4.328125 -2.707031 3.789062 -1.324219 1.925781 -0.78125 Z M 1.925781 0 "/></g></g></g><g fill="#e4c590" fill-opacity="1"><g transform="translate(290.209264, 233.280467)"><g><path d="M 17.914062 0.601562 C 25.011719 0.601562 33.605469 -4.929688 33.605469 -15.210938 C 33.605469 -25.910156 25.371094 -30.480469 17.914062 -30.480469 C 9.679688 -30.480469 2.164062 -23.988281 2.164062 -14.609375 C 2.164062 -4.148438 10.28125 0.601562 17.914062 0.601562 Z M 6.792969 -18.035156 C 6.792969 -24.046875 9.558594 -29.097656 15.691406 -29.339844 C 23.566406 -29.757812 29.039062 -19.417969 29.039062 -11.664062 C 29.039062 -5.832031 26.152344 -0.660156 19.71875 -0.660156 C 11.722656 -0.660156 6.792969 -10.402344 6.792969 -18.035156 Z M 6.792969 -18.035156 "/></g></g></g></svg>