<svg xmlns="http://www.w3.org/2000/svg" xmlns:xlink="http://www.w3.org/1999/xlink" width="500" zoomAndPan="magnify" viewBox="0 0 375 374.999991" height="500" preserveAspectRatio="xMidYMid meet" version="1.0"><defs><g/><clipPath id="111c636eea"><path d="M 5 101.589844 L 139 101.589844 L 139 233.589844 L 5 233.589844 Z M 5 101.589844 " clip-rule="nonzero"/></clipPath></defs><g clip-path="url(#111c636eea)"><path fill="#e4c590" d="M 72.363281 101.589844 C 88.773438 120.339844 85.367188 136.625 81.527344 155.085938 C 79.863281 163.15625 78.085938 171.664062 77.90625 180.890625 C 77.726562 191.605469 79.789062 194.609375 82.109375 197.902344 C 83.628906 200.074219 85.222656 202.355469 86.453125 206.699219 C 87.140625 209.085938 87.359375 212.089844 86.851562 216.289062 L 86.816406 216.398438 C 86.308594 220.488281 85.042969 225.699219 82.761719 232.648438 C 82.578125 233.191406 82.070312 233.554688 81.492188 233.554688 L 63.164062 233.554688 C 62.621094 233.554688 62.078125 233.191406 61.898438 232.648438 C 59.617188 225.738281 58.386719 220.488281 57.84375 216.398438 L 57.804688 216.289062 C 57.261719 212.089844 57.515625 209.085938 58.203125 206.699219 C 59.433594 202.355469 61.027344 200.074219 62.550781 197.902344 C 64.832031 194.609375 66.933594 191.605469 66.75 180.890625 C 66.605469 171.664062 64.832031 163.15625 63.128906 155.085938 C 59.289062 136.625 55.886719 120.304688 72.292969 101.589844 Z M 72.363281 211.441406 C 73.34375 211.441406 74.140625 212.234375 74.140625 213.214844 L 74.140625 229.972656 C 74.140625 230.515625 74.574219 230.984375 75.152344 230.984375 L 75.589844 230.984375 C 76.132812 230.984375 76.566406 230.585938 76.601562 230.042969 L 77.652344 213.683594 C 77.726562 212.707031 78.558594 211.984375 79.535156 212.054688 C 80.515625 212.128906 81.238281 212.960938 81.203125 213.9375 L 80.078125 231.019531 L 80.621094 231.019531 C 82.652344 224.6875 83.773438 219.910156 84.246094 216.179688 L 84.246094 216.074219 C 84.714844 212.273438 84.535156 209.59375 83.953125 207.496094 C 82.867188 203.621094 81.382812 201.488281 80.007812 199.496094 C 77.472656 195.839844 75.152344 192.511719 75.335938 180.929688 C 75.480469 171.410156 77.289062 162.796875 78.992188 154.613281 C 82.507812 137.710938 85.65625 122.65625 72.402344 105.824219 C 59.183594 122.691406 62.296875 137.710938 65.808594 154.613281 C 67.511719 162.796875 69.324219 171.410156 69.46875 180.929688 C 69.648438 192.511719 67.367188 195.839844 64.796875 199.496094 C 63.417969 201.488281 61.933594 203.621094 60.847656 207.496094 C 60.269531 209.558594 60.050781 212.234375 60.558594 216.074219 L 60.558594 216.179688 C 61.027344 219.910156 62.152344 224.6875 64.179688 231.019531 L 64.722656 231.019531 L 63.601562 213.9375 C 63.527344 212.960938 64.289062 212.128906 65.265625 212.054688 C 66.246094 211.984375 67.078125 212.742188 67.148438 213.683594 L 68.199219 230.042969 C 68.238281 230.585938 68.671875 230.984375 69.214844 230.984375 L 69.648438 230.984375 C 70.191406 230.984375 70.664062 230.550781 70.664062 229.972656 L 70.664062 213.214844 C 70.664062 212.234375 71.460938 211.441406 72.4375 211.441406 Z M 59.652344 194.863281 C 59.582031 194.863281 40.023438 192.074219 29.085938 204.960938 L 27.492188 206.84375 L 29.917969 207.132812 C 31.292969 207.3125 31.835938 207.386719 32.417969 207.457031 C 39.515625 208.363281 45.203125 209.125 51.722656 204.707031 C 53.496094 203.511719 55.378906 202.03125 56.972656 200.652344 C 58.53125 199.316406 59.832031 197.976562 60.558594 196.925781 L 61.789062 195.152344 L 59.617188 194.863281 Z M 32.816406 204.851562 C 40.566406 197.503906 51.757812 197.070312 56.753906 197.289062 C 56.320312 197.722656 55.8125 198.191406 55.269531 198.664062 C 53.75 200.003906 51.9375 201.378906 50.273438 202.535156 C 44.621094 206.371094 39.335938 205.683594 32.851562 204.851562 Z M 61.644531 190.953125 C 61.535156 190.84375 27.128906 157.367188 7.355469 162.070312 L 5.867188 162.433594 L 6.414062 163.84375 C 12.027344 178.140625 23.976562 185.488281 35.351562 189.253906 C 46.613281 192.980469 57.335938 193.199219 60.667969 193.269531 L 64 193.34375 L 61.609375 191.027344 Z M 9.492188 164.351562 C 24.957031 162.433594 49.367188 183.28125 57.226562 190.449219 C 52.445312 190.195312 44.441406 189.433594 36.183594 186.683594 C 25.824219 183.246094 14.996094 176.730469 9.492188 164.351562 Z M 65.339844 186.792969 C 65.339844 186.648438 62.660156 137.460938 32.34375 124.140625 L 30.96875 123.523438 L 30.535156 124.972656 C 29.011719 130.039062 28.214844 137.167969 32.34375 147.414062 C 36.402344 157.472656 45.273438 170.578125 63.09375 187.804688 L 65.519531 190.15625 Z M 32.671875 127.214844 C 55.597656 138.542969 61.175781 172.386719 62.40625 183.425781 C 46.613281 167.71875 38.574219 155.699219 34.84375 146.433594 C 31.367188 137.894531 31.621094 131.742188 32.707031 127.214844 Z M 85.042969 194.898438 C 85.113281 194.898438 104.671875 192.113281 115.609375 204.996094 L 117.203125 206.878906 L 114.738281 207.167969 C 113.363281 207.351562 112.820312 207.421875 112.242188 207.496094 C 105.140625 208.398438 99.457031 209.160156 92.9375 204.742188 C 91.164062 203.550781 89.277344 202.066406 87.683594 200.691406 C 86.128906 199.351562 84.824219 198.011719 84.101562 196.960938 L 82.867188 195.1875 Z M 111.878906 204.890625 C 104.128906 197.542969 92.9375 197.105469 87.9375 197.324219 C 88.375 197.757812 88.878906 198.230469 89.425781 198.699219 C 90.945312 200.039062 92.757812 201.414062 94.421875 202.574219 C 100.070312 206.410156 105.359375 205.722656 111.84375 204.890625 Z M 83.050781 190.988281 C 83.15625 190.882812 117.566406 157.402344 137.339844 162.105469 L 138.824219 162.46875 L 138.28125 163.878906 C 132.667969 178.175781 120.714844 185.523438 109.34375 189.289062 C 98.078125 193.015625 87.359375 193.234375 84.027344 193.304688 L 80.695312 193.378906 L 83.085938 191.0625 Z M 135.203125 164.386719 C 119.738281 162.46875 95.328125 183.316406 87.46875 190.484375 C 92.25 190.230469 100.253906 189.46875 108.511719 186.71875 C 118.867188 183.28125 129.699219 176.765625 135.203125 164.386719 Z M 79.355469 186.828125 C 79.355469 186.683594 82.035156 137.496094 112.351562 124.175781 L 113.726562 123.558594 L 114.160156 125.007812 C 115.683594 130.074219 116.480469 137.207031 112.351562 147.449219 C 108.292969 157.511719 99.421875 170.613281 81.601562 187.839844 L 79.175781 190.195312 Z M 112.023438 127.253906 C 89.097656 138.582031 83.519531 172.421875 82.289062 183.460938 C 98.078125 167.753906 106.121094 155.738281 109.851562 146.472656 C 113.328125 137.929688 113.074219 131.777344 111.988281 127.253906 Z M 112.023438 127.253906 " fill-opacity="1" fill-rule="nonzero"/></g><g fill="#ffffff" fill-opacity="1"><g transform="translate(146.043277, 203.999987)"><g><path d="M 3.066406 0 L 31.023438 0 L 31.441406 -6.792969 L 30.78125 -6.914062 C 28.675781 -2.40625 26.03125 -0.960938 20.261719 -0.960938 L 13.105469 -0.960938 C 11.363281 -0.960938 10.402344 -1.925781 10.402344 -3.667969 L 10.402344 -34.449219 C 10.402344 -39.378906 10.941406 -40.761719 12.804688 -41.300781 L 12.804688 -42.085938 L 3.066406 -42.085938 L 3.066406 -41.300781 C 4.871094 -40.761719 5.472656 -39.378906 5.472656 -34.449219 L 5.472656 -7.636719 C 5.472656 -2.707031 4.871094 -1.324219 3.066406 -0.78125 Z M 3.066406 0 "/></g></g></g><g fill="#ffffff" fill-opacity="1"><g transform="translate(182.11389, 203.999987)"><g><path d="M 13.105469 0.601562 C 17.613281 0.601562 21.761719 -2.285156 24.828125 -5.472656 L 24.828125 -2.40625 C 24.828125 -0.660156 25.492188 0 26.8125 0 L 31.921875 0 L 31.921875 -0.78125 C 30.058594 -1.324219 29.519531 -2.707031 29.519531 -7.636719 L 29.519531 -30.121094 L 28.976562 -30.539062 L 22.425781 -27.65625 L 22.425781 -26.992188 C 24.046875 -26.273438 24.828125 -25.671875 24.828125 -21.460938 L 24.828125 -6.613281 C 22.125 -3.726562 18.878906 -1.503906 15.332031 -1.503906 C 10.519531 -1.503906 8.597656 -4.570312 8.597656 -11.421875 L 8.597656 -30.121094 L 8.054688 -30.539062 L 1.503906 -27.65625 L 1.503906 -26.992188 C 3.125 -26.273438 3.90625 -25.671875 3.90625 -21.460938 L 3.90625 -10.339844 C 3.90625 -3.425781 6.792969 0.601562 13.105469 0.601562 Z M 13.105469 0.601562 "/></g></g></g><g fill="#ffffff" fill-opacity="1"><g transform="translate(219.567201, 203.999987)"><g><path d="M 18.757812 0 L 28.015625 0 L 28.015625 -0.78125 C 26.453125 -1.324219 24.949219 -2.285156 22.246094 -6.371094 L 15.511719 -16.652344 L 20.5 -23.808594 C 23.328125 -27.835938 24.890625 -28.738281 26.511719 -29.277344 L 26.511719 -30.058594 L 18.816406 -30.058594 L 18.816406 -29.277344 C 22.726562 -28.738281 22.304688 -27.835938 19.480469 -23.808594 L 14.96875 -17.433594 L 10.882812 -23.6875 C 8.175781 -27.777344 7.214844 -28.738281 9.078125 -29.277344 L 9.078125 -30.058594 L -0.242188 -30.058594 L -0.242188 -29.277344 C 1.324219 -28.738281 2.824219 -27.777344 5.53125 -23.6875 L 11.664062 -14.429688 L 5.589844 -6.132812 C 2.707031 -2.222656 1.082031 -1.324219 -0.542969 -0.78125 L -0.542969 0 L 7.214844 0 L 7.214844 -0.78125 C 3.304688 -1.324219 3.789062 -2.222656 6.671875 -6.132812 L 12.144531 -13.648438 L 16.953125 -6.371094 C 19.660156 -2.285156 20.621094 -1.324219 18.757812 -0.78125 Z M 18.757812 0 "/></g></g></g><g fill="#ffffff" fill-opacity="1"><g transform="translate(250.888546, 203.999987)"><g><path d="M 16.414062 0.601562 C 22.84375 0.601562 27.535156 -3.667969 30.601562 -7.875 L 30.058594 -8.417969 C 27.292969 -5.289062 23.988281 -3.1875 19.359375 -3.1875 C 11.542969 -3.1875 6.433594 -8.835938 6.433594 -17.074219 C 6.433594 -18.035156 6.492188 -18.9375 6.613281 -19.839844 L 30.121094 -19.839844 C 29.941406 -25.550781 25.550781 -30.480469 17.976562 -30.480469 C 9.558594 -30.480469 2.164062 -23.929688 2.164062 -14.128906 C 2.164062 -4.207031 9.800781 0.601562 16.414062 0.601562 Z M 6.792969 -20.621094 C 7.753906 -25.671875 10.882812 -29.457031 15.992188 -29.398438 C 21.460938 -29.398438 24.710938 -24.648438 25.308594 -20.621094 Z M 6.792969 -20.621094 "/></g></g></g><g fill="#e4c590" fill-opacity="1"><g transform="translate(147.88542, 232.862783)"><g><path d="M 1.738281 0 L 7.265625 0 L 7.265625 -0.445312 C 6.210938 -0.75 5.902344 -1.535156 5.902344 -4.332031 L 5.902344 -12.792969 L 9.960938 -12.792969 C 13.851562 -12.792969 14.808594 -11.976562 15.25 -10.441406 L 15.660156 -10.441406 L 15.660156 -15.625 L 15.25 -15.625 C 14.808594 -14.125 13.851562 -13.304688 9.960938 -13.339844 L 5.902344 -13.339844 L 5.902344 -23.335938 L 11.941406 -23.335938 C 15.148438 -23.335938 16.582031 -22.484375 17.742188 -20.199219 L 18.117188 -20.300781 L 17.808594 -23.882812 L 1.738281 -23.882812 L 1.738281 -23.4375 C 2.761719 -23.132812 3.105469 -22.347656 3.105469 -19.550781 L 3.105469 -4.332031 C 3.105469 -1.535156 2.761719 -0.75 1.738281 -0.445312 Z M 1.738281 0 "/></g></g></g><g fill="#e4c590" fill-opacity="1"><g transform="translate(168.899696, 232.862783)"><g><path d="M 7.4375 0.339844 C 9.996094 0.339844 12.351562 -1.296875 14.089844 -3.105469 L 14.089844 -1.363281 C 14.089844 -0.375 14.464844 0 15.214844 0 L 18.117188 0 L 18.117188 -0.445312 C 17.058594 -0.75 16.75 -1.535156 16.75 -4.332031 L 16.75 -17.09375 L 16.445312 -17.332031 L 12.726562 -15.695312 L 12.726562 -15.320312 C 13.648438 -14.910156 14.089844 -14.566406 14.089844 -12.179688 L 14.089844 -3.753906 C 12.554688 -2.117188 10.714844 -0.851562 8.699219 -0.851562 C 5.96875 -0.851562 4.878906 -2.59375 4.878906 -6.480469 L 4.878906 -17.09375 L 4.570312 -17.332031 L 0.851562 -15.695312 L 0.851562 -15.320312 C 1.773438 -14.910156 2.21875 -14.566406 2.21875 -12.179688 L 2.21875 -5.867188 C 2.21875 -1.945312 3.855469 0.339844 7.4375 0.339844 Z M 7.4375 0.339844 "/></g></g></g><g fill="#e4c590" fill-opacity="1"><g transform="translate(190.152765, 232.862783)"><g><path d="M 7.710938 0.308594 C 11.804688 0.273438 13.953125 -2.148438 13.953125 -5.015625 C 13.953125 -8.425781 10.816406 -9.210938 8.222656 -10.066406 C 5.527344 -10.953125 3.34375 -11.839844 3.34375 -13.988281 C 3.34375 -15.726562 4.84375 -16.855469 7.164062 -16.855469 C 9.585938 -16.855469 11.769531 -15.285156 12.863281 -12.828125 L 13.203125 -12.894531 L 13.066406 -16.375 C 12.007812 -16.820312 9.996094 -17.296875 7.777344 -17.296875 C 3.820312 -17.296875 1.570312 -15.214844 1.570312 -12.519531 C 1.570312 -9.417969 3.890625 -8.53125 7.128906 -7.503906 C 9.757812 -6.652344 12.144531 -5.867188 12.144531 -3.410156 C 12.144531 -1.5 10.578125 -0.238281 8.460938 -0.238281 C 5.355469 -0.273438 2.933594 -2.21875 1.5 -5.457031 L 1.195312 -5.390625 L 1.5 -1.261719 C 2.628906 -0.511719 4.980469 0.308594 7.710938 0.308594 Z M 7.710938 0.308594 "/></g></g></g><g fill="#e4c590" fill-opacity="1"><g transform="translate(207.278135, 232.862783)"><g><path d="M 1.089844 0 L 6.480469 0 L 6.480469 -0.445312 C 5.457031 -0.75 5.117188 -1.535156 5.117188 -4.332031 L 5.117188 -17.09375 L 4.84375 -17.332031 L 1.089844 -15.695312 L 1.089844 -15.320312 C 2.046875 -14.910156 2.457031 -14.566406 2.457031 -12.179688 L 2.457031 -4.332031 C 2.457031 -1.535156 2.148438 -0.75 1.089844 -0.445312 Z M 1.707031 -21.289062 C 1.707031 -20.265625 2.523438 -19.414062 3.582031 -19.414062 C 4.640625 -19.414062 5.457031 -20.265625 5.457031 -21.289062 C 5.457031 -22.382812 4.675781 -23.199219 3.582031 -23.199219 C 2.523438 -23.199219 1.707031 -22.382812 1.707031 -21.289062 Z M 1.707031 -21.289062 "/></g></g></g><g fill="#e4c590" fill-opacity="1"><g transform="translate(216.898593, 232.862783)"><g><path d="M 10.167969 0.339844 C 14.191406 0.339844 19.070312 -2.796875 19.070312 -8.632812 C 19.070312 -14.703125 14.398438 -17.296875 10.167969 -17.296875 C 5.492188 -17.296875 1.226562 -13.613281 1.226562 -8.289062 C 1.226562 -2.355469 5.835938 0.339844 10.167969 0.339844 Z M 3.855469 -10.234375 C 3.855469 -13.648438 5.425781 -16.511719 8.90625 -16.648438 C 13.375 -16.886719 16.480469 -11.019531 16.480469 -6.617188 C 16.480469 -3.308594 14.839844 -0.375 11.191406 -0.375 C 6.652344 -0.375 3.855469 -5.902344 3.855469 -10.234375 Z M 3.855469 -10.234375 "/></g></g></g><g fill="#e4c590" fill-opacity="1"><g transform="translate(239.379737, 232.862783)"><g><path d="M 1.089844 0 L 6.480469 0 L 6.480469 -0.445312 C 5.457031 -0.75 5.117188 -1.535156 5.117188 -4.332031 L 5.117188 -13.613281 C 6.859375 -15.046875 8.699219 -16.171875 10.578125 -16.171875 C 13.578125 -16.171875 15.078125 -14.226562 15.078125 -10.679688 L 15.078125 -4.332031 C 15.078125 -1.535156 14.773438 -0.75 13.714844 -0.445312 L 13.714844 0 L 19.105469 0 L 19.105469 -0.445312 C 18.046875 -0.75 17.742188 -1.535156 17.742188 -4.332031 L 17.742188 -11.359375 C 17.742188 -15.351562 15.695312 -17.296875 12.351562 -17.296875 C 9.722656 -17.296875 7.097656 -15.761719 5.117188 -14.160156 L 5.117188 -17.09375 L 4.84375 -17.332031 L 1.089844 -15.695312 L 1.089844 -15.320312 C 2.046875 -14.910156 2.457031 -14.566406 2.457031 -12.179688 L 2.457031 -4.332031 C 2.457031 -1.535156 2.148438 -0.75 1.089844 -0.445312 Z M 1.089844 0 "/></g></g></g><g fill="#e4c590" fill-opacity="1"><g transform="translate(261.246854, 232.862783)"><g/></g></g><g fill="#e4c590" fill-opacity="1"><g transform="translate(270.355618, 232.862783)"><g><path d="M 1.738281 0 L 8.699219 0 C 16.992188 0 19.855469 -4.027344 19.789062 -7.847656 C 19.753906 -11.191406 17.296875 -13.953125 11.738281 -14.226562 C 15.625 -14.945312 17.128906 -17.058594 17.128906 -19.378906 C 17.128906 -22.140625 14.976562 -23.882812 9.722656 -23.882812 L 1.738281 -23.882812 L 1.738281 -23.4375 C 2.761719 -23.132812 3.105469 -22.347656 3.105469 -19.550781 L 3.105469 -4.332031 C 3.105469 -1.535156 2.761719 -0.75 1.738281 -0.445312 Z M 5.902344 -3.480469 L 5.902344 -13.785156 L 9.382812 -13.785156 C 14.5 -13.785156 16.683594 -10.917969 16.683594 -6.992188 C 16.683594 -3.207031 14.566406 -0.511719 9.007812 -0.511719 L 7.675781 -0.511719 C 6.210938 -0.511719 5.902344 -1.023438 5.902344 -3.480469 Z M 5.902344 -14.296875 L 5.902344 -23.371094 L 8.496094 -23.371094 C 12.007812 -23.371094 14.023438 -21.597656 14.023438 -18.765625 C 14.023438 -16.273438 12.453125 -14.296875 9.074219 -14.296875 Z M 5.902344 -14.296875 "/></g></g></g><g fill="#e4c590" fill-opacity="1"><g transform="translate(293.177905, 232.862783)"><g><path d="M 1.089844 0 L 6.480469 0 L 6.480469 -0.445312 C 5.457031 -0.75 5.117188 -1.535156 5.117188 -4.332031 L 5.117188 -17.09375 L 4.84375 -17.332031 L 1.089844 -15.695312 L 1.089844 -15.320312 C 2.046875 -14.910156 2.457031 -14.566406 2.457031 -12.179688 L 2.457031 -4.332031 C 2.457031 -1.535156 2.148438 -0.75 1.089844 -0.445312 Z M 1.707031 -21.289062 C 1.707031 -20.265625 2.523438 -19.414062 3.582031 -19.414062 C 4.640625 -19.414062 5.457031 -20.265625 5.457031 -21.289062 C 5.457031 -22.382812 4.675781 -23.199219 3.582031 -23.199219 C 2.523438 -23.199219 1.707031 -22.382812 1.707031 -21.289062 Z M 1.707031 -21.289062 "/></g></g></g><g fill="#e4c590" fill-opacity="1"><g transform="translate(302.798369, 232.862783)"><g><path d="M 7.710938 0.308594 C 11.804688 0.273438 13.953125 -2.148438 13.953125 -5.015625 C 13.953125 -8.425781 10.816406 -9.210938 8.222656 -10.066406 C 5.527344 -10.953125 3.34375 -11.839844 3.34375 -13.988281 C 3.34375 -15.726562 4.84375 -16.855469 7.164062 -16.855469 C 9.585938 -16.855469 11.769531 -15.285156 12.863281 -12.828125 L 13.203125 -12.894531 L 13.066406 -16.375 C 12.007812 -16.820312 9.996094 -17.296875 7.777344 -17.296875 C 3.820312 -17.296875 1.570312 -15.214844 1.570312 -12.519531 C 1.570312 -9.417969 3.890625 -8.53125 7.128906 -7.503906 C 9.757812 -6.652344 12.144531 -5.867188 12.144531 -3.410156 C 12.144531 -1.5 10.578125 -0.238281 8.460938 -0.238281 C 5.355469 -0.273438 2.933594 -2.21875 1.5 -5.457031 L 1.195312 -5.390625 L 1.5 -1.261719 C 2.628906 -0.511719 4.980469 0.308594 7.710938 0.308594 Z M 7.710938 0.308594 "/></g></g></g><g fill="#e4c590" fill-opacity="1"><g transform="translate(319.923742, 232.862783)"><g><path d="M 6.449219 0.339844 C 8.460938 0.339844 10.199219 -1.125 11.667969 -2.796875 L 11.359375 -3.105469 C 10.234375 -1.773438 9.042969 -1.332031 8.085938 -1.332031 C 6.617188 -1.332031 5.664062 -2.21875 5.664062 -4.539062 L 5.664062 -16.582031 L 10.679688 -16.582031 L 10.847656 -17.058594 L 5.664062 -17.058594 L 5.664062 -21.253906 L 5.1875 -21.253906 L 0.820312 -17.058594 L 0.820312 -16.582031 L 3.003906 -16.582031 L 3.003906 -4.539062 C 3.003906 -0.988281 4.296875 0.339844 6.449219 0.339844 Z M 6.449219 0.339844 "/></g></g></g><g fill="#e4c590" fill-opacity="1"><g transform="translate(333.603688, 232.862783)"><g><path d="M 1.089844 0 L 6.480469 0 L 6.480469 -0.445312 C 5.425781 -0.75 5.117188 -1.535156 5.117188 -4.332031 L 5.117188 -11.121094 L 5.152344 -11.121094 C 5.253906 -12.761719 6.480469 -14.671875 7.472656 -15.386719 C 9.484375 -14.808594 10.816406 -14.433594 11.738281 -14.433594 C 12.964844 -14.433594 13.714844 -15.625 13.714844 -16.375 C 13.714844 -16.957031 12.863281 -17.296875 11.496094 -17.296875 C 9.859375 -17.296875 8.664062 -16.855469 7.609375 -16.070312 C 6.585938 -15.320312 5.664062 -14.160156 5.117188 -12.828125 L 5.117188 -17.09375 L 4.8125 -17.332031 L 1.089844 -15.695312 L 1.089844 -15.320312 C 2.011719 -14.910156 2.457031 -14.566406 2.457031 -12.179688 L 2.457031 -4.332031 C 2.457031 -1.535156 2.148438 -0.75 1.089844 -0.445312 Z M 1.089844 0 "/></g></g></g><g fill="#e4c590" fill-opacity="1"><g transform="translate(349.876236, 232.862783)"><g><path d="M 10.167969 0.339844 C 14.191406 0.339844 19.070312 -2.796875 19.070312 -8.632812 C 19.070312 -14.703125 14.398438 -17.296875 10.167969 -17.296875 C 5.492188 -17.296875 1.226562 -13.613281 1.226562 -8.289062 C 1.226562 -2.355469 5.835938 0.339844 10.167969 0.339844 Z M 3.855469 -10.234375 C 3.855469 -13.648438 5.425781 -16.511719 8.90625 -16.648438 C 13.375 -16.886719 16.480469 -11.019531 16.480469 -6.617188 C 16.480469 -3.308594 14.839844 -0.375 11.191406 -0.375 C 6.652344 -0.375 3.855469 -5.902344 3.855469 -10.234375 Z M 3.855469 -10.234375 "/></g></g></g></svg>