<svg xmlns="http://www.w3.org/2000/svg" xmlns:xlink="http://www.w3.org/1999/xlink" width="500" zoomAndPan="magnify" viewBox="0 0 375 374.999991" height="500" preserveAspectRatio="xMidYMid meet" version="1.0"><defs><g/><clipPath id="f3556728cf"><path d="M 15 149.390625 L 103 149.390625 L 103 235.640625 L 15 235.640625 Z M 15 149.390625 " clip-rule="nonzero"/></clipPath></defs><g clip-path="url(#f3556728cf)"><path fill="#e4c590" d="M 58.882812 149.390625 C 69.578125 161.640625 67.359375 172.285156 64.859375 184.34375 C 63.773438 189.621094 62.613281 195.175781 62.496094 201.207031 C 62.378906 208.207031 63.722656 210.171875 65.234375 212.324219 C 66.226562 213.742188 67.265625 215.230469 68.070312 218.070312 C 68.515625 219.628906 68.660156 221.59375 68.328125 224.335938 L 68.304688 224.40625 C 67.972656 227.082031 67.148438 230.484375 65.660156 235.027344 C 65.542969 235.382812 65.210938 235.617188 64.832031 235.617188 L 52.886719 235.617188 C 52.53125 235.617188 52.179688 235.382812 52.0625 235.027344 C 50.574219 230.507812 49.769531 227.082031 49.417969 224.40625 L 49.394531 224.335938 C 49.039062 221.59375 49.203125 219.628906 49.652344 218.070312 C 50.457031 215.230469 51.492188 213.742188 52.484375 212.324219 C 53.972656 210.171875 55.34375 208.207031 55.222656 201.207031 C 55.128906 195.175781 53.972656 189.621094 52.863281 184.34375 C 50.359375 172.285156 48.140625 161.617188 58.835938 149.390625 Z M 58.882812 221.167969 C 59.523438 221.167969 60.042969 221.6875 60.042969 222.328125 L 60.042969 233.277344 C 60.042969 233.632812 60.324219 233.9375 60.703125 233.9375 L 60.984375 233.9375 C 61.339844 233.9375 61.621094 233.679688 61.648438 233.324219 L 62.332031 222.632812 C 62.378906 221.996094 62.921875 221.523438 63.558594 221.570312 C 64.195312 221.617188 64.667969 222.160156 64.644531 222.800781 L 63.914062 233.960938 L 64.265625 233.960938 C 65.589844 229.824219 66.320312 226.703125 66.628906 224.265625 L 66.628906 224.195312 C 66.933594 221.710938 66.816406 219.960938 66.441406 218.589844 C 65.730469 216.058594 64.761719 214.664062 63.867188 213.363281 C 62.214844 210.976562 60.703125 208.800781 60.820312 201.230469 C 60.914062 195.011719 62.09375 189.382812 63.203125 184.039062 C 65.496094 172.992188 67.550781 163.15625 58.90625 152.160156 C 50.289062 163.179688 52.320312 172.992188 54.609375 184.039062 C 55.71875 189.382812 56.902344 195.011719 56.996094 201.230469 C 57.113281 208.800781 55.625 210.976562 53.949219 213.363281 C 53.050781 214.664062 52.085938 216.058594 51.375 218.589844 C 51 219.9375 50.855469 221.6875 51.1875 224.195312 L 51.1875 224.265625 C 51.492188 226.703125 52.226562 229.824219 53.546875 233.960938 L 53.902344 233.960938 L 53.171875 222.800781 C 53.125 222.160156 53.617188 221.617188 54.257812 221.570312 C 54.894531 221.523438 55.4375 222.019531 55.484375 222.632812 L 56.167969 233.324219 C 56.191406 233.679688 56.476562 233.9375 56.828125 233.9375 L 57.113281 233.9375 C 57.46875 233.9375 57.773438 233.65625 57.773438 233.277344 L 57.773438 222.328125 C 57.773438 221.6875 58.292969 221.167969 58.929688 221.167969 Z M 50.597656 210.335938 C 50.550781 210.335938 37.800781 208.515625 30.667969 216.933594 L 29.632812 218.164062 L 31.210938 218.355469 C 32.109375 218.472656 32.464844 218.519531 32.84375 218.566406 C 37.46875 219.15625 41.175781 219.65625 45.425781 216.769531 C 46.582031 215.988281 47.8125 215.019531 48.851562 214.121094 C 49.863281 213.246094 50.714844 212.371094 51.1875 211.683594 L 51.988281 210.527344 L 50.574219 210.335938 Z M 33.101562 216.863281 C 38.152344 212.0625 45.449219 211.777344 48.707031 211.921875 C 48.425781 212.203125 48.09375 212.511719 47.738281 212.820312 C 46.75 213.695312 45.566406 214.59375 44.480469 215.351562 C 40.796875 217.855469 37.351562 217.40625 33.125 216.863281 Z M 51.894531 207.78125 C 51.824219 207.710938 29.394531 185.835938 16.503906 188.910156 L 15.535156 189.144531 L 15.890625 190.070312 C 19.550781 199.410156 27.339844 204.210938 34.753906 206.671875 C 42.097656 209.105469 49.085938 209.25 51.257812 209.296875 L 53.429688 209.34375 L 51.871094 207.828125 Z M 17.898438 190.398438 C 27.976562 189.144531 43.890625 202.769531 49.015625 207.449219 C 45.898438 207.285156 40.679688 206.789062 35.296875 204.992188 C 28.542969 202.746094 21.484375 198.488281 17.898438 190.398438 Z M 54.304688 205.0625 C 54.304688 204.96875 52.554688 172.828125 32.792969 164.125 L 31.898438 163.722656 L 31.613281 164.667969 C 30.621094 167.980469 30.101562 172.640625 32.792969 179.332031 C 35.4375 185.90625 41.222656 194.46875 52.839844 205.726562 L 54.421875 207.261719 Z M 33.007812 166.136719 C 47.953125 173.539062 51.589844 195.648438 52.390625 202.863281 C 42.097656 192.597656 36.855469 184.746094 34.425781 178.691406 C 32.15625 173.113281 32.324219 169.089844 33.03125 166.136719 Z M 67.148438 210.359375 C 67.195312 210.359375 79.945312 208.539062 87.074219 216.957031 L 88.113281 218.1875 L 86.507812 218.378906 C 85.609375 218.496094 85.257812 218.542969 84.878906 218.589844 C 80.25 219.179688 76.542969 219.679688 72.292969 216.792969 C 71.136719 216.011719 69.910156 215.042969 68.871094 214.144531 C 67.855469 213.269531 67.007812 212.394531 66.535156 211.707031 L 65.730469 210.550781 Z M 84.644531 216.886719 C 79.589844 212.085938 72.292969 211.800781 69.035156 211.945312 C 69.320312 212.226562 69.652344 212.535156 70.003906 212.84375 C 70.996094 213.71875 72.175781 214.617188 73.261719 215.375 C 76.945312 217.878906 80.394531 217.429688 84.621094 216.886719 Z M 65.847656 207.804688 C 65.921875 207.734375 88.351562 185.859375 101.242188 188.933594 L 102.210938 189.171875 L 101.855469 190.09375 C 98.195312 199.433594 90.402344 204.234375 82.992188 206.695312 C 75.648438 209.128906 68.660156 209.273438 66.488281 209.320312 L 64.316406 209.367188 L 65.871094 207.851562 Z M 99.847656 190.421875 C 89.765625 189.171875 73.851562 202.792969 68.730469 207.476562 C 71.847656 207.308594 77.0625 206.8125 82.445312 205.015625 C 89.199219 202.769531 96.257812 198.511719 99.847656 190.421875 Z M 63.441406 205.085938 C 63.441406 204.992188 65.1875 172.851562 84.949219 164.148438 L 85.847656 163.746094 L 86.128906 164.691406 C 87.121094 168.003906 87.640625 172.664062 84.949219 179.355469 C 82.304688 185.929688 76.519531 194.492188 64.90625 205.75 L 63.324219 207.285156 Z M 84.738281 166.160156 C 69.792969 173.5625 66.15625 195.671875 65.351562 202.886719 C 75.648438 192.621094 80.890625 184.769531 83.320312 178.71875 C 85.585938 173.136719 85.421875 169.113281 84.714844 166.160156 Z M 84.738281 166.160156 " fill-opacity="1" fill-rule="nonzero"/></g><g fill="#ffffff" fill-opacity="1"><g transform="translate(104.579867, 203.999987)"><g><path d="M 3.066406 0 L 31.023438 0 L 31.441406 -6.792969 L 30.78125 -6.914062 C 28.675781 -2.40625 26.03125 -0.960938 20.261719 -0.960938 L 13.105469 -0.960938 C 11.363281 -0.960938 10.402344 -1.925781 10.402344 -3.667969 L 10.402344 -34.449219 C 10.402344 -39.378906 10.941406 -40.761719 12.804688 -41.300781 L 12.804688 -42.085938 L 3.066406 -42.085938 L 3.066406 -41.300781 C 4.871094 -40.761719 5.472656 -39.378906 5.472656 -34.449219 L 5.472656 -7.636719 C 5.472656 -2.707031 4.871094 -1.324219 3.066406 -0.78125 Z M 3.066406 0 "/></g></g></g><g fill="#ffffff" fill-opacity="1"><g transform="translate(140.65048, 203.999987)"><g><path d="M 13.105469 0.601562 C 17.613281 0.601562 21.761719 -2.285156 24.828125 -5.472656 L 24.828125 -2.40625 C 24.828125 -0.660156 25.492188 0 26.8125 0 L 31.921875 0 L 31.921875 -0.78125 C 30.058594 -1.324219 29.519531 -2.707031 29.519531 -7.636719 L 29.519531 -30.121094 L 28.976562 -30.539062 L 22.425781 -27.65625 L 22.425781 -26.992188 C 24.046875 -26.273438 24.828125 -25.671875 24.828125 -21.460938 L 24.828125 -6.613281 C 22.125 -3.726562 18.878906 -1.503906 15.332031 -1.503906 C 10.519531 -1.503906 8.597656 -4.570312 8.597656 -11.421875 L 8.597656 -30.121094 L 8.054688 -30.539062 L 1.503906 -27.65625 L 1.503906 -26.992188 C 3.125 -26.273438 3.90625 -25.671875 3.90625 -21.460938 L 3.90625 -10.339844 C 3.90625 -3.425781 6.792969 0.601562 13.105469 0.601562 Z M 13.105469 0.601562 "/></g></g></g><g fill="#ffffff" fill-opacity="1"><g transform="translate(178.103791, 203.999987)"><g><path d="M 18.757812 0 L 28.015625 0 L 28.015625 -0.78125 C 26.453125 -1.324219 24.949219 -2.285156 22.246094 -6.371094 L 15.511719 -16.652344 L 20.5 -23.808594 C 23.328125 -27.835938 24.890625 -28.738281 26.511719 -29.277344 L 26.511719 -30.058594 L 18.816406 -30.058594 L 18.816406 -29.277344 C 22.726562 -28.738281 22.304688 -27.835938 19.480469 -23.808594 L 14.96875 -17.433594 L 10.882812 -23.6875 C 8.175781 -27.777344 7.214844 -28.738281 9.078125 -29.277344 L 9.078125 -30.058594 L -0.242188 -30.058594 L -0.242188 -29.277344 C 1.324219 -28.738281 2.824219 -27.777344 5.53125 -23.6875 L 11.664062 -14.429688 L 5.589844 -6.132812 C 2.707031 -2.222656 1.082031 -1.324219 -0.542969 -0.78125 L -0.542969 0 L 7.214844 0 L 7.214844 -0.78125 C 3.304688 -1.324219 3.789062 -2.222656 6.671875 -6.132812 L 12.144531 -13.648438 L 16.953125 -6.371094 C 19.660156 -2.285156 20.621094 -1.324219 18.757812 -0.78125 Z M 18.757812 0 "/></g></g></g><g fill="#ffffff" fill-opacity="1"><g transform="translate(209.425136, 203.999987)"><g><path d="M 16.414062 0.601562 C 22.84375 0.601562 27.535156 -3.667969 30.601562 -7.875 L 30.058594 -8.417969 C 27.292969 -5.289062 23.988281 -3.1875 19.359375 -3.1875 C 11.542969 -3.1875 6.433594 -8.835938 6.433594 -17.074219 C 6.433594 -18.035156 6.492188 -18.9375 6.613281 -19.839844 L 30.121094 -19.839844 C 29.941406 -25.550781 25.550781 -30.480469 17.976562 -30.480469 C 9.558594 -30.480469 2.164062 -23.929688 2.164062 -14.128906 C 2.164062 -4.207031 9.800781 0.601562 16.414062 0.601562 Z M 6.792969 -20.621094 C 7.753906 -25.671875 10.882812 -29.457031 15.992188 -29.398438 C 21.460938 -29.398438 24.710938 -24.648438 25.308594 -20.621094 Z M 6.792969 -20.621094 "/></g></g></g><g fill="#e4c590" fill-opacity="1"><g transform="translate(106.422003, 232.862783)"><g><path d="M 1.738281 0 L 7.265625 0 L 7.265625 -0.445312 C 6.210938 -0.75 5.902344 -1.535156 5.902344 -4.332031 L 5.902344 -12.792969 L 9.960938 -12.792969 C 13.851562 -12.792969 14.808594 -11.976562 15.25 -10.441406 L 15.660156 -10.441406 L 15.660156 -15.625 L 15.25 -15.625 C 14.808594 -14.125 13.851562 -13.304688 9.960938 -13.339844 L 5.902344 -13.339844 L 5.902344 -23.335938 L 11.941406 -23.335938 C 15.148438 -23.335938 16.582031 -22.484375 17.742188 -20.199219 L 18.117188 -20.300781 L 17.808594 -23.882812 L 1.738281 -23.882812 L 1.738281 -23.4375 C 2.761719 -23.132812 3.105469 -22.347656 3.105469 -19.550781 L 3.105469 -4.332031 C 3.105469 -1.535156 2.761719 -0.75 1.738281 -0.445312 Z M 1.738281 0 "/></g></g></g><g fill="#e4c590" fill-opacity="1"><g transform="translate(127.436279, 232.862783)"><g><path d="M 7.4375 0.339844 C 9.996094 0.339844 12.351562 -1.296875 14.089844 -3.105469 L 14.089844 -1.363281 C 14.089844 -0.375 14.464844 0 15.214844 0 L 18.117188 0 L 18.117188 -0.445312 C 17.058594 -0.75 16.75 -1.535156 16.75 -4.332031 L 16.75 -17.09375 L 16.445312 -17.332031 L 12.726562 -15.695312 L 12.726562 -15.320312 C 13.648438 -14.910156 14.089844 -14.566406 14.089844 -12.179688 L 14.089844 -3.753906 C 12.554688 -2.117188 10.714844 -0.851562 8.699219 -0.851562 C 5.96875 -0.851562 4.878906 -2.59375 4.878906 -6.480469 L 4.878906 -17.09375 L 4.570312 -17.332031 L 0.851562 -15.695312 L 0.851562 -15.320312 C 1.773438 -14.910156 2.21875 -14.566406 2.21875 -12.179688 L 2.21875 -5.867188 C 2.21875 -1.945312 3.855469 0.339844 7.4375 0.339844 Z M 7.4375 0.339844 "/></g></g></g><g fill="#e4c590" fill-opacity="1"><g transform="translate(148.689348, 232.862783)"><g><path d="M 7.710938 0.308594 C 11.804688 0.273438 13.953125 -2.148438 13.953125 -5.015625 C 13.953125 -8.425781 10.816406 -9.210938 8.222656 -10.066406 C 5.527344 -10.953125 3.34375 -11.839844 3.34375 -13.988281 C 3.34375 -15.726562 4.84375 -16.855469 7.164062 -16.855469 C 9.585938 -16.855469 11.769531 -15.285156 12.863281 -12.828125 L 13.203125 -12.894531 L 13.066406 -16.375 C 12.007812 -16.820312 9.996094 -17.296875 7.777344 -17.296875 C 3.820312 -17.296875 1.570312 -15.214844 1.570312 -12.519531 C 1.570312 -9.417969 3.890625 -8.53125 7.128906 -7.503906 C 9.757812 -6.652344 12.144531 -5.867188 12.144531 -3.410156 C 12.144531 -1.5 10.578125 -0.238281 8.460938 -0.238281 C 5.355469 -0.273438 2.933594 -2.21875 1.5 -5.457031 L 1.195312 -5.390625 L 1.5 -1.261719 C 2.628906 -0.511719 4.980469 0.308594 7.710938 0.308594 Z M 7.710938 0.308594 "/></g></g></g><g fill="#e4c590" fill-opacity="1"><g transform="translate(165.814718, 232.862783)"><g><path d="M 1.089844 0 L 6.480469 0 L 6.480469 -0.445312 C 5.457031 -0.75 5.117188 -1.535156 5.117188 -4.332031 L 5.117188 -17.09375 L 4.84375 -17.332031 L 1.089844 -15.695312 L 1.089844 -15.320312 C 2.046875 -14.910156 2.457031 -14.566406 2.457031 -12.179688 L 2.457031 -4.332031 C 2.457031 -1.535156 2.148438 -0.75 1.089844 -0.445312 Z M 1.707031 -21.289062 C 1.707031 -20.265625 2.523438 -19.414062 3.582031 -19.414062 C 4.640625 -19.414062 5.457031 -20.265625 5.457031 -21.289062 C 5.457031 -22.382812 4.675781 -23.199219 3.582031 -23.199219 C 2.523438 -23.199219 1.707031 -22.382812 1.707031 -21.289062 Z M 1.707031 -21.289062 "/></g></g></g><g fill="#e4c590" fill-opacity="1"><g transform="translate(175.435176, 232.862783)"><g><path d="M 10.167969 0.339844 C 14.191406 0.339844 19.070312 -2.796875 19.070312 -8.632812 C 19.070312 -14.703125 14.398438 -17.296875 10.167969 -17.296875 C 5.492188 -17.296875 1.226562 -13.613281 1.226562 -8.289062 C 1.226562 -2.355469 5.835938 0.339844 10.167969 0.339844 Z M 3.855469 -10.234375 C 3.855469 -13.648438 5.425781 -16.511719 8.90625 -16.648438 C 13.375 -16.886719 16.480469 -11.019531 16.480469 -6.617188 C 16.480469 -3.308594 14.839844 -0.375 11.191406 -0.375 C 6.652344 -0.375 3.855469 -5.902344 3.855469 -10.234375 Z M 3.855469 -10.234375 "/></g></g></g><g fill="#e4c590" fill-opacity="1"><g transform="translate(197.91632, 232.862783)"><g><path d="M 1.089844 0 L 6.480469 0 L 6.480469 -0.445312 C 5.457031 -0.75 5.117188 -1.535156 5.117188 -4.332031 L 5.117188 -13.613281 C 6.859375 -15.046875 8.699219 -16.171875 10.578125 -16.171875 C 13.578125 -16.171875 15.078125 -14.226562 15.078125 -10.679688 L 15.078125 -4.332031 C 15.078125 -1.535156 14.773438 -0.75 13.714844 -0.445312 L 13.714844 0 L 19.105469 0 L 19.105469 -0.445312 C 18.046875 -0.75 17.742188 -1.535156 17.742188 -4.332031 L 17.742188 -11.359375 C 17.742188 -15.351562 15.695312 -17.296875 12.351562 -17.296875 C 9.722656 -17.296875 7.097656 -15.761719 5.117188 -14.160156 L 5.117188 -17.09375 L 4.84375 -17.332031 L 1.089844 -15.695312 L 1.089844 -15.320312 C 2.046875 -14.910156 2.457031 -14.566406 2.457031 -12.179688 L 2.457031 -4.332031 C 2.457031 -1.535156 2.148438 -0.75 1.089844 -0.445312 Z M 1.089844 0 "/></g></g></g><g fill="#e4c590" fill-opacity="1"><g transform="translate(219.783437, 232.862783)"><g/></g></g><g fill="#e4c590" fill-opacity="1"><g transform="translate(228.892201, 232.862783)"><g><path d="M 1.738281 0 L 8.699219 0 C 16.992188 0 19.855469 -4.027344 19.789062 -7.847656 C 19.753906 -11.191406 17.296875 -13.953125 11.738281 -14.226562 C 15.625 -14.945312 17.128906 -17.058594 17.128906 -19.378906 C 17.128906 -22.140625 14.976562 -23.882812 9.722656 -23.882812 L 1.738281 -23.882812 L 1.738281 -23.4375 C 2.761719 -23.132812 3.105469 -22.347656 3.105469 -19.550781 L 3.105469 -4.332031 C 3.105469 -1.535156 2.761719 -0.75 1.738281 -0.445312 Z M 5.902344 -3.480469 L 5.902344 -13.785156 L 9.382812 -13.785156 C 14.5 -13.785156 16.683594 -10.917969 16.683594 -6.992188 C 16.683594 -3.207031 14.566406 -0.511719 9.007812 -0.511719 L 7.675781 -0.511719 C 6.210938 -0.511719 5.902344 -1.023438 5.902344 -3.480469 Z M 5.902344 -14.296875 L 5.902344 -23.371094 L 8.496094 -23.371094 C 12.007812 -23.371094 14.023438 -21.597656 14.023438 -18.765625 C 14.023438 -16.273438 12.453125 -14.296875 9.074219 -14.296875 Z M 5.902344 -14.296875 "/></g></g></g><g fill="#e4c590" fill-opacity="1"><g transform="translate(251.714488, 232.862783)"><g><path d="M 1.089844 0 L 6.480469 0 L 6.480469 -0.445312 C 5.457031 -0.75 5.117188 -1.535156 5.117188 -4.332031 L 5.117188 -17.09375 L 4.84375 -17.332031 L 1.089844 -15.695312 L 1.089844 -15.320312 C 2.046875 -14.910156 2.457031 -14.566406 2.457031 -12.179688 L 2.457031 -4.332031 C 2.457031 -1.535156 2.148438 -0.75 1.089844 -0.445312 Z M 1.707031 -21.289062 C 1.707031 -20.265625 2.523438 -19.414062 3.582031 -19.414062 C 4.640625 -19.414062 5.457031 -20.265625 5.457031 -21.289062 C 5.457031 -22.382812 4.675781 -23.199219 3.582031 -23.199219 C 2.523438 -23.199219 1.707031 -22.382812 1.707031 -21.289062 Z M 1.707031 -21.289062 "/></g></g></g><g fill="#e4c590" fill-opacity="1"><g transform="translate(261.334952, 232.862783)"><g><path d="M 7.710938 0.308594 C 11.804688 0.273438 13.953125 -2.148438 13.953125 -5.015625 C 13.953125 -8.425781 10.816406 -9.210938 8.222656 -10.066406 C 5.527344 -10.953125 3.34375 -11.839844 3.34375 -13.988281 C 3.34375 -15.726562 4.84375 -16.855469 7.164062 -16.855469 C 9.585938 -16.855469 11.769531 -15.285156 12.863281 -12.828125 L 13.203125 -12.894531 L 13.066406 -16.375 C 12.007812 -16.820312 9.996094 -17.296875 7.777344 -17.296875 C 3.820312 -17.296875 1.570312 -15.214844 1.570312 -12.519531 C 1.570312 -9.417969 3.890625 -8.53125 7.128906 -7.503906 C 9.757812 -6.652344 12.144531 -5.867188 12.144531 -3.410156 C 12.144531 -1.5 10.578125 -0.238281 8.460938 -0.238281 C 5.355469 -0.273438 2.933594 -2.21875 1.5 -5.457031 L 1.195312 -5.390625 L 1.5 -1.261719 C 2.628906 -0.511719 4.980469 0.308594 7.710938 0.308594 Z M 7.710938 0.308594 "/></g></g></g><g fill="#e4c590" fill-opacity="1"><g transform="translate(278.460325, 232.862783)"><g><path d="M 6.449219 0.339844 C 8.460938 0.339844 10.199219 -1.125 11.667969 -2.796875 L 11.359375 -3.105469 C 10.234375 -1.773438 9.042969 -1.332031 8.085938 -1.332031 C 6.617188 -1.332031 5.664062 -2.21875 5.664062 -4.539062 L 5.664062 -16.582031 L 10.679688 -16.582031 L 10.847656 -17.058594 L 5.664062 -17.058594 L 5.664062 -21.253906 L 5.1875 -21.253906 L 0.820312 -17.058594 L 0.820312 -16.582031 L 3.003906 -16.582031 L 3.003906 -4.539062 C 3.003906 -0.988281 4.296875 0.339844 6.449219 0.339844 Z M 6.449219 0.339844 "/></g></g></g><g fill="#e4c590" fill-opacity="1"><g transform="translate(292.14027, 232.862783)"><g><path d="M 1.089844 0 L 6.480469 0 L 6.480469 -0.445312 C 5.425781 -0.75 5.117188 -1.535156 5.117188 -4.332031 L 5.117188 -11.121094 L 5.152344 -11.121094 C 5.253906 -12.761719 6.480469 -14.671875 7.472656 -15.386719 C 9.484375 -14.808594 10.816406 -14.433594 11.738281 -14.433594 C 12.964844 -14.433594 13.714844 -15.625 13.714844 -16.375 C 13.714844 -16.957031 12.863281 -17.296875 11.496094 -17.296875 C 9.859375 -17.296875 8.664062 -16.855469 7.609375 -16.070312 C 6.585938 -15.320312 5.664062 -14.160156 5.117188 -12.828125 L 5.117188 -17.09375 L 4.8125 -17.332031 L 1.089844 -15.695312 L 1.089844 -15.320312 C 2.011719 -14.910156 2.457031 -14.566406 2.457031 -12.179688 L 2.457031 -4.332031 C 2.457031 -1.535156 2.148438 -0.75 1.089844 -0.445312 Z M 1.089844 0 "/></g></g></g><g fill="#e4c590" fill-opacity="1"><g transform="translate(308.412818, 232.862783)"><g><path d="M 10.167969 0.339844 C 14.191406 0.339844 19.070312 -2.796875 19.070312 -8.632812 C 19.070312 -14.703125 14.398438 -17.296875 10.167969 -17.296875 C 5.492188 -17.296875 1.226562 -13.613281 1.226562 -8.289062 C 1.226562 -2.355469 5.835938 0.339844 10.167969 0.339844 Z M 3.855469 -10.234375 C 3.855469 -13.648438 5.425781 -16.511719 8.90625 -16.648438 C 13.375 -16.886719 16.480469 -11.019531 16.480469 -6.617188 C 16.480469 -3.308594 14.839844 -0.375 11.191406 -0.375 C 6.652344 -0.375 3.855469 -5.902344 3.855469 -10.234375 Z M 3.855469 -10.234375 "/></g></g></g></svg>